<svg width="92" height="112" viewBox="0 0 92 112" fill="none" xmlns="http://www.w3.org/2000/svg">
<path d="M15.6439 88.8633C15.8711 90.2266 16.6524 91.4349 17.8024 92.2016L46 111L74.1976 92.2016C75.3476 91.4349 76.1289 90.2266 76.3561 88.8633L79.3333 71H12.6667L15.6439 88.8633Z" fill="url(#paint0_linear_0_1)"/>
<path d="M46 1L2.61398 29.924C1.63171 30.5789 1.12482 31.7489 1.31889 32.9134L10.5317 88.1902C10.828 89.9683 11.9081 91.5189 13.4732 92.4133L46 111L14 91L4 31L46 1Z" fill="#0F0F10"/>
<path d="M46 111L78.5268 92.4133C80.0919 91.5189 81.172 89.9683 81.4683 88.1902L90.6811 32.9134C90.8752 31.7489 90.3683 30.5789 89.386 29.924L46 1L88 31L78.1862 91L46 111Z" fill="#0F0F10"/>
<path d="M6 31L9.33333 51H82.6667L86 31L46 7L6 31Z" fill="url(#paint1_linear_0_1)"/>
<path fill-rule="evenodd" clip-rule="evenodd" d="M15.6439 88.8633C15.8711 90.2266 16.6524 91.4349 17.8024 92.2016L46 111L14 91L4 31H6L9.33333 51H82.6667L86 31H88L78.1862 91L46 111L74.1976 92.2016C75.3476 91.4349 76.1289 90.2266 76.3561 88.8633L79.3333 71H12.6667L15.6439 88.8633Z" fill="url(#paint2_linear_0_1)"/>
<path d="M46 1L4 31H6L46 7L86 31H88L46 1Z" fill="#0F0F10"/>
<path d="M46 1L2.61398 29.924C1.63171 30.5789 1.12482 31.7489 1.31889 32.9134L10.5317 88.1902C10.828 89.9683 11.9081 91.5189 13.4732 92.4133L46 111M46 1L89.386 29.924C90.3683 30.5789 90.8752 31.7489 90.6811 32.9134L81.4683 88.1902C81.172 89.9683 80.0919 91.5189 78.5268 92.4133L46 111M46 1L4 31M46 1L88 31M6 31L9.33333 51H82.6667L86 31M6 31L46 7L86 31M6 31H4M46 111L17.8024 92.2016C16.6524 91.4349 15.8711 90.2266 15.6439 88.8633L12.6667 71H79.3333L76.3561 88.8633C76.1289 90.2266 75.3476 91.4349 74.1976 92.2016L46 111ZM46 111L14 91L4 31M46 111L78.1862 91L88 31M86 31H88" stroke="black"/>
<path d="M23.072 66.012H19.424V65.64L20.552 64.752V58.116L17.348 66.012H16.688L13.508 58.032V64.896L14.768 65.532L14.528 66.012H11.72V65.64L12.848 64.752V57.72L11.6 57.048L11.84 56.568H14.444L17.444 64.104L20.432 56.568H23.192V56.94L22.052 57.828V65.088L23.312 65.532L23.072 66.012ZM31.8341 66H24.6341V65.628L25.7621 64.74V57.468L24.5141 57.048L24.7541 56.568H31.7141L32.3621 56.352V59.112L32.0021 59.232L30.5741 57.108H27.2621V60.912H29.1461L30.0221 59.376H30.3941V63.024L29.9141 63.264L29.1581 61.452H27.2621V65.46H30.5261L32.1221 63.096L32.4821 63.216V66.216L31.8341 66ZM39.7115 63.876C39.7115 63.628 39.6115 63.396 39.4115 63.18C39.2115 62.964 38.9595 62.768 38.6555 62.592C38.3595 62.408 37.9555 62.184 37.4435 61.92C36.8355 61.6 36.3475 61.328 35.9795 61.104C35.6115 60.872 35.2955 60.6 35.0315 60.288C34.7755 59.976 34.6475 59.632 34.6475 59.256C34.6475 58.856 34.8155 58.428 35.1515 57.972C35.4875 57.508 35.8955 57.12 36.3755 56.808C36.8635 56.488 37.3115 56.328 37.7195 56.328C38.2155 56.328 38.7915 56.388 39.4475 56.508C40.1035 56.628 40.5835 56.756 40.8875 56.892V59.22H40.4315C40.0395 58.572 39.6075 58.068 39.1355 57.708C38.6715 57.348 38.1835 57.168 37.6715 57.168C37.2155 57.168 36.8515 57.312 36.5795 57.6C36.3155 57.88 36.1835 58.248 36.1835 58.704C36.1835 58.968 36.2835 59.216 36.4835 59.448C36.6915 59.672 36.9435 59.872 37.2395 60.048C37.5435 60.224 37.9635 60.452 38.4995 60.732C39.0915 61.028 39.5715 61.292 39.9395 61.524C40.3075 61.748 40.6155 62.012 40.8635 62.316C41.1195 62.612 41.2475 62.948 41.2475 63.324C41.2475 63.724 41.0675 64.156 40.7075 64.62C40.3475 65.076 39.9075 65.464 39.3875 65.784C38.8755 66.096 38.4075 66.252 37.9835 66.252C37.4635 66.252 36.8435 66.192 36.1235 66.072C35.4115 65.952 34.8995 65.824 34.5875 65.688V63.36H35.0435C35.4515 64.008 35.9155 64.512 36.4355 64.872C36.9555 65.232 37.4915 65.412 38.0435 65.412C38.3715 65.412 38.6635 65.34 38.9195 65.196C39.1755 65.052 39.3715 64.864 39.5075 64.632C39.6435 64.392 39.7115 64.14 39.7115 63.876ZM48.1138 63.876C48.1138 63.628 48.0138 63.396 47.8138 63.18C47.6138 62.964 47.3618 62.768 47.0578 62.592C46.7618 62.408 46.3578 62.184 45.8458 61.92C45.2378 61.6 44.7498 61.328 44.3818 61.104C44.0138 60.872 43.6978 60.6 43.4338 60.288C43.1778 59.976 43.0498 59.632 43.0498 59.256C43.0498 58.856 43.2178 58.428 43.5538 57.972C43.8898 57.508 44.2978 57.12 44.7778 56.808C45.2658 56.488 45.7138 56.328 46.1218 56.328C46.6178 56.328 47.1938 56.388 47.8498 56.508C48.5058 56.628 48.9858 56.756 49.2898 56.892V59.22H48.8338C48.4418 58.572 48.0098 58.068 47.5378 57.708C47.0738 57.348 46.5858 57.168 46.0738 57.168C45.6178 57.168 45.2538 57.312 44.9818 57.6C44.7178 57.88 44.5858 58.248 44.5858 58.704C44.5858 58.968 44.6858 59.216 44.8858 59.448C45.0938 59.672 45.3458 59.872 45.6418 60.048C45.9458 60.224 46.3658 60.452 46.9018 60.732C47.4938 61.028 47.9738 61.292 48.3418 61.524C48.7098 61.748 49.0178 62.012 49.2658 62.316C49.5218 62.612 49.6498 62.948 49.6498 63.324C49.6498 63.724 49.4698 64.156 49.1098 64.62C48.7498 65.076 48.3098 65.464 47.7898 65.784C47.2778 66.096 46.8098 66.252 46.3858 66.252C45.8658 66.252 45.2458 66.192 44.5258 66.072C43.8138 65.952 43.3018 65.824 42.9898 65.688V63.36H43.4458C43.8538 64.008 44.3178 64.512 44.8378 64.872C45.3578 65.232 45.8938 65.412 46.4458 65.412C46.7738 65.412 47.0658 65.34 47.3218 65.196C47.5778 65.052 47.7738 64.864 47.9098 64.632C48.0458 64.392 48.1138 64.14 48.1138 63.876ZM60.6922 66H57.0442V65.628L58.1722 64.752L57.2482 62.532H53.2162L52.2322 64.8L54.3442 65.52L54.1042 66H50.4562V65.628L51.5842 64.74L54.9802 56.952L56.2282 56.34L59.7322 64.788L60.9322 65.52L60.6922 66ZM55.2802 57.78L53.4562 61.992H57.0322L55.2802 57.78ZM69.3936 59.112L69.0336 59.232L67.6056 57.108H64.2936V60.912H66.1776L67.0536 59.376H67.4256V62.664L66.9456 62.904L66.2136 61.452H64.2816V65.004L66.1416 65.52L65.9016 66H61.6536V65.628L62.7816 64.74V57.468L61.5336 57.048L61.7736 56.568H68.7336L69.3936 56.352V59.112ZM78.1466 66H70.9466V65.628L72.0746 64.74V57.468L70.8266 57.048L71.0666 56.568H78.0266L78.6746 56.352V59.112L78.3146 59.232L76.8866 57.108H73.5746V60.912H75.4586L76.3346 59.376H76.7066V63.024L76.2266 63.264L75.4706 61.452H73.5746V65.46H76.8386L78.4346 63.096L78.7946 63.216V66.216L78.1466 66Z" fill="black"/>
<defs>
<linearGradient id="paint0_linear_0_1" x1="81.5" y1="90.5" x2="11" y2="91.5" gradientUnits="userSpaceOnUse">
<stop stop-color="#FAE9A9"/>
<stop offset="1" stop-color="#8F7200"/>
</linearGradient>
<linearGradient id="paint1_linear_0_1" x1="81.5" y1="90.5" x2="11" y2="91.5" gradientUnits="userSpaceOnUse">
<stop stop-color="#FAE9A9"/>
<stop offset="1" stop-color="#8F7200"/>
</linearGradient>
<linearGradient id="paint2_linear_0_1" x1="6" y1="60" x2="84.5" y2="60" gradientUnits="userSpaceOnUse">
<stop stop-color="#0E7D05"/>
<stop offset="1" stop-color="#7ED387"/>
</linearGradient>
</defs>
</svg>
